<svg xmlns="http://www.w3.org/2000/svg" width="143.968" height="143.97" viewBox="0 0 143.968 143.97">
  <metadata><?xpacket begin="﻿" id="W5M0MpCehiHzreSzNTczkc9d"?>
<x:xmpmeta xmlns:x="adobe:ns:meta/" x:xmptk="Adobe XMP Core 5.6-c138 79.159824, 2016/09/14-01:09:01        ">
   <rdf:RDF xmlns:rdf="http://www.w3.org/1999/02/22-rdf-syntax-ns#">
      <rdf:Description rdf:about=""/>
   </rdf:RDF>
</x:xmpmeta>
                                                                                                    
                                                                                                    
                                                                                                    
                                                                                                    
                                                                                                    
                                                                                                    
                                                                                                    
                                                                                                    
                                                                                                    
                                                                                                    
                                                                                                    
                                                                                                    
                                                                                                    
                                                                                                    
                                                                                                    
                                                                                                    
                                                                                                    
                                                                                                    
                                                                                                    
                                                                                                    
                           
<?xpacket end="w"?></metadata>
<defs>
    <style>
      .cls-1 {
        fill-rule: evenodd;
      }
    </style>
  </defs>
  <path id="wordpress" class="cls-1" d="M831.1,3392.31a61.2,61.2,0,0,0,25.308,22.57l-29.486-80.74a61,61,0,0,0-5.383,25.15A60.007,60.007,0,0,0,831.1,3392.31Zm88.86-53.19c-0.161-.27-0.536-0.88-1.125-1.85s-0.978-1.6-1.165-1.93-0.522-.88-1-1.68a14.948,14.948,0,0,1-.964-1.81c-0.161-.4-0.4-0.96-0.723-1.69a9.457,9.457,0,0,1-.643-1.85c-0.108-.5-0.215-1.08-0.321-1.72a11.727,11.727,0,0,1-.161-1.93,10.968,10.968,0,0,1,2.973-7.67,9.6,9.6,0,0,1,7.391-3.26h0.8a62.186,62.186,0,0,0-19.162-11.97,61.774,61.774,0,0,0-52.063,3.25,61.512,61.512,0,0,0-22.055,20.37c0.535,0,1.232.02,2.089,0.04s1.473,0.04,1.848.04l16.471-.8a2.408,2.408,0,0,1,2.29,1.08,2.508,2.508,0,0,1,.2,2.49,2.366,2.366,0,0,1-2.089,1.49q-3.374.405-7.07,0.64l22.5,66.85,13.5-40.49-9.641-26.36-6.427-.64a2.533,2.533,0,0,1-1.567-.64,2.278,2.278,0,0,1-.723-1.33,3.074,3.074,0,0,1,.12-1.48,2.351,2.351,0,0,1,.924-1.21,2.442,2.442,0,0,1,1.647-.4q10.2,0.72,16.23.8l16.47-.8a2.408,2.408,0,0,1,2.29,1.08,2.511,2.511,0,0,1,.2,2.49,2.366,2.366,0,0,1-2.089,1.49q-3.375.405-7.07,0.64l22.335,66.37,6.106-20.57q0.321-1.05,1.406-4.66t1.407-4.74q0.319-1.125.923-3.54a35.677,35.677,0,0,0,.8-3.97,24.619,24.619,0,0,0,.2-3.1,33.377,33.377,0,0,0-5.062-17.03h0Zm-54.071,79.38a59.6,59.6,0,0,0,17.434,2.57,61.92,61.92,0,0,0,20.488-3.53,1.921,1.921,0,0,1-.4-0.89l-19.041-51.98Zm72.068-82.51q0,8.6-4.74,22.17l-18.881,54.48a61.809,61.809,0,0,0,22.416-22.38,59.914,59.914,0,0,0,8.356-30.97,60.96,60.96,0,0,0-7.633-29.65,39.73,39.73,0,0,1,.482,6.35h0ZM832.38,3308.35a72.379,72.379,0,0,0-15.346,22.98,71.379,71.379,0,0,0,0,55.92,70.779,70.779,0,0,0,38.325,38.32,71.423,71.423,0,0,0,55.919,0,70.782,70.782,0,0,0,38.324-38.32,71.379,71.379,0,0,0,0-55.92A70.757,70.757,0,0,0,911.278,3293a71.423,71.423,0,0,0-55.919,0A72.406,72.406,0,0,0,832.38,3308.35Zm2.37,99.5a69.178,69.178,0,0,1-14.662-21.93,67.65,67.65,0,0,1,0-53.27,67.682,67.682,0,0,1,36.6-36.59,67.577,67.577,0,0,1,53.268,0,67.688,67.688,0,0,1,36.6,36.59,67.661,67.661,0,0,1,0,53.27,67.749,67.749,0,0,1-36.6,36.6,67.691,67.691,0,0,1-53.268,0A69.283,69.283,0,0,1,834.75,3407.85Z" transform="translate(-811.344 -3287.31)"/>
</svg>
